P3
64 64
255
84
40
18
55
25
12
40
18
8
121
70
31
165
101
51
172
108
55
158
98
50
92
48
21
24
8
6
15
7
6
59
25
12
108
52
24
74
29
12
29
10
8
32
15
8
88
44
19
125
62
26
77
37
16
93
46
20
34
15
8
108
64
26
170
116
55
163
106
53
79
41
18
18
8
6
26
11
7
32
16
11
119
67
28
167
109
48
150
95
50
92
54
30
79
41
20
84
40
19
56
24
12
39
17
7
121
70
31
165
101
49
172
108
55
158
97
48
91
48
21
23
8
4
15
6
7
58
25
12
107
52
26
74
30
12
28
10
7
31
15
9
89
44
17
126
62
26
76
38
17
93
46
21
35
15
7
107
63
25
168
116
55
163
106
53
78
41
20
18
8
5
27
11
7
32
16
11
119
68
28
167
109
49
151
95
50
94
55
30
80
41
18
82
49
22
23
11
6
17
7
3
26
11
5
115
64
29
162
100
48
178
114
61
148
90
40
76
38
15
42
22
12
36
18
8
103
54
25
84
37
15
45
17
8
66
33
15
34
15
10
87
44
17
117
69
30
127
67
33
64
27
11
38
19
11
89
52
25
144
84
38
129
69
32
63
27
15
14
9
5
31
14
6
115
62
28
152
95
41
167
105
50
149
92
45
118
72
34
81
50
23
24
11
8
17
7
4
27
12
4
115
64
30
162
100
48
179
115
61
148
90
41
77
39
15
43
22
11
35
18
8
105
53
26
84
36
15
44
17
9
66
32
16
33
16
11
87
44
17
116
69
29
127
68
33
65
27
11
40
19
11
88
52
27
144
85
37
129
69
33
63
27
15
14
9
7
32
13
7
115
63
27
152
95
41
167
105
50
149
93
44
119
72
34
135
85
39
26
13
6
10
7
4
15
7
4
46
20
9
152
91
44
181
117
60
169
102
45
88
48
21
93
49
22
63
37
16
90
52
26
131
73
34
98
50
21
138
80
34
81
44
20
43
20
8
143
81
37
157
90
43
122
60
24
64
28
13
20
9
6
115
64
30
159
99
49
114
54
23
38
16
9
13
7
7
92
50
24
143
84
36
160
93
41
172
111
53
171
111
52
135
85
40
27
13
7
11
6
4
16
6
4
45
21
8
152
92
44
181
117
61
169
102
45
88
48
21
94
48
23
62
38
17
90
53
27
131
73
34
96
51
21
139
80
32
80
44
20
42
20
9
143
82
37
157
91
43
122
61
24
63
27
13
21
9
7
114
64
32
159
99
48
115
55
24
37
16
8
14
7
8
92
50
24
143
84
37
159
94
41
173
111
54
172
110
53
163
97
49
80
39
16
21
9
7
30
15
9
89
48
19
159
105
51
183
130
60
178
114
47
124
72
32
92
48
23
102
62
28
69
41
18
151
91
43
154
85
40
167
104
50
144
90
40
72
37
20
86
42
19
96
48
21
122
63
25
119
60
24
86
40
18
66
30
14
151
87
41
142
73
34
63
28
13
11
7
6
29
14
8
97
56
24
152
87
38
172
111
54
179
115
59
162
97
49
79
39
15
21
10
6
29
15
9
90
47
19
160
105
50
184
130
61
179
113
46
124
71
32
92
47
25
103
61
28
67
41
18
151
90
43
153
84
40
167
103
51
144
90
39
72
37
19
85
43
21
97
47
22
123
61
25
119
59
23
85
40
19
67
30
14
151
86
42
142
74
34
63
29
12
11
7
7
29
13
8
97
56
24
152
87
38
172
112
55
179
115
61
160
91
42
133
71
31
77
36
17
29
14
9
103
56
21
177
118
57
188
129
61
182
116
56
160
95
43
79
39
17
130
75
35
104
63
29
160
96
43
129
70
29
81
39
17
144
81
37
147
79
35
128
67
32
37
17
8
61
28
13
109
53
22
160
94
45
140
76
32
172
107
51
167
99
46
110
64
30
29
14
10
14
7
5
29
13
7
110
59
27
122
67
33
153
91
42
160
92
43
134
71
31
78
36
17
30
14
8
103
56
22
176
118
58
187
130
62
183
115
56
160
96
43
79
39
17
129
75
36
103
63
29
160
95
43
128
71
28
81
38
19
143
81
37
146
79
35
129
67
33
37
17
9
61
27
12
109
52
22
162
94
47
140
76
33
172
108
51
166
100
45
109
64
30
30
15
9
15
7
5
29
13
8
110
60
27
123
67
34
152
91
41
157
95
48
166
104
50
149
86
36
108
56
28
150
84
39
185
124
59
190
124
65
184
115
56
169
101
46
85
46
22
125
72
30
158
95
42
170
103
46
146
79
36
60
26
12
65
28
11
150
82
40
137
75
36
96
44
22
25
9
7
97
48
21
166
100
44
179
111
50
189
124
60
185
124
66
156
101
49
112
68
31
49
24
11
14
6
6
38
19
10
71
33
16
84
44
20
156
95
48
166
104
50
149
86
38
109
55
29
149
85
39
185
123
60
189
124
64
185
114
56
168
101
47
86
46
22
126
71
31
157
95
40
170
103
46
144
79
36
60
26
12
63
27
13
149
82
39
136
74
35
95
45
21
23
10
8
97
48
21
165
100
44
178
110
51
190
124
62
186
123
65
155
102
49
113
68
30
48
24
11
16
6
6
39
18
12
71
33
16
84
43
20
122
69
32
179
117
56
175
105
48
134
74
34
135
81
36
167
101
47
175
111
50
174
105
47
169
102
50
115
64
29
70
36
16
146
82
35
171
104
50
161
88
39
126
60
26
40
14
7
105
53
24
128
65
27
91
39
17
38
14
9
126
66
27
170
103
45
180
110
51
184
117
55
191
136
70
177
122
60
164
110
55
127
78
40
52
26
11
19
9
8
25
10
7
38
15
8
122
69
31
178
117
57
175
106
49
134
73
34
137
80
36
168
101
49
176
111
49
173
105
48
168
102
51
115
63
28
70
36
15
145
81
36
170
103
49
161
88
39
125
60
26
38
15
7
105
52
24
129
65
27
92
39
19
37
14
9
125
68
28
171
102
46
179
110
50
183
116
54
191
135
69
179
122
60
164
110
55
128
77
38
52
26
12
20
10
7
26
9
7
37
15
8
70
34
14
170
108
49
168
105
52
158
94
45
126
69
29
74
33
15
115
60
26
148
83
36
137
72
29
116
57
23
21
9
5
72
32
13
130
67
28
163
91
41
157
84
35
118
60
28
50
20
10
93
41
16
50
19
8
13
6
5
110
56
22
165
95
42
146
84
37
154
96
43
184
130
65
196
151
83
187
136
74
167
112
58
120
68
28
39
18
10
19
9
6
54
23
11
71
34
15
171
108
50
168
105
52
158
94
45
126
69
31
74
34
15
114
60
26
148
83
37
137
72
30
117
56
23
21
9
4
72
33
12
130
67
28
163
91
41
157
84
35
118
60
29
51
20
10
93
41
14
49
19
6
14
6
6
110
57
22
165
94
43
146
85
37
154
97
43
183
131
65
196
151
82
186
137
74
166
112
60
119
68
28
40
18
9
17
9
6
54
23
11
95
48
22
143
80
39
155
92
47
176
112
49
177
108
50
151
85
36
97
47
21
47
19
10
76
33
15
104
50
20
54
22
10
12
7
5
68
30
10
140
71
30
169
97
43
159
88
38
103
50
21
48
21
11
39
17
10
28
10
7
113
59
25
161
96
46
138
86
38
56
27
13
145
92
42
185
137
73
190
137
70
179
118
56
153
96
45
91
46
21
22
9
7
59
28
12
94
48
22
143
80
40
154
92
48
175
112
50
178
108
50
149
86
36
96
48
22
48
19
9
77
33
15
104
49
20
55
22
10
11
6
4
68
30
10
140
71
30
170
97
43
159
88
38
104
50
22
47
22
10
39
18
10
28
11
8
112
59
24
160
96
46
137
86
39
56
26
14
145
92
42
186
137
72
190
136
71
179
118
57
152
96
46
92
46
20
21
10
7
59
28
13
75
41
17
139
72
34
146
75
41
172
111
50
174
108
51
159
87
38
152
83
39
100
45
18
23
9
7
84
36
14
107
48
20
89
43
18
38
14
9
110
57
26
165
95
42
163
92
41
145
77
32
65
30
11
26
11
7
27
11
6
119
65
27
163
103
48
174
114
57
150
95
43
120
74
33
191
142
75
193
138
69
188
127
58
166
103
44
124
66
26
84
39
18
65
29
14
74
41
16
140
73
34
146
75
41
172
110
50
174
107
52
159
86
40
153
83
38
99
45
19
23
8
8
84
35
14
106
49
19
89
44
19
37
14
8
110
56
26
165
95
43
162
92
41
145
78
32
65
29
10
27
11
7
27
11
6
119
64
27
164
103
47
174
114
57
150
96
44
119
73
32
191
142
77
192
139
69
189
128
58
166
104
44
124
66
25
83
38
20
65
29
14
143
84
37
136
75
31
151
84
42
150
85
38
102
57
25
130
67
30
146
82
36
132
65
28
77
32
15
63
27
12
137
68
28
149
80
38
114
57
26
41
19
9
125
70
30
178
111
53
171
103
47
126
65
26
50
20
8
11
5
6
112
66
30
174
120
60
184
127
62
184
129
64
181
127
58
186
131
61
190
135
69
183
121
56
167
99
42
126
65
23
103
51
22
154
85
43
142
85
38
137
75
31
152
84
42
150
85
38
103
56
26
129
66
30
146
81
38
132
65
29
76
33
15
63
27
11
138
68
28
148
79
39
114
58
26
41
19
10
124
70
30
180
111
52
171
102
46
127
64
25
48
21
9
10
5
7
111
65
30
174
120
60
185
127
64
184
128
64
181
127
58
187
130
62
191
135
69
183
121
57
166
100
42
125
65
25
103
50
22
153
84
43
175
111
53
150
86
36
181
113
57
166
99
49
83
43
20
31
13
9
80
38
16
99
47
19
99
44
17
59
23
12
127
62
24
172
100
49
171
102
48
138
81
35
96
48
16
179
111
51
188
120
62
162
96
43
131
73
29
67
33
14
78
44
20
174
119
57
189
137
70
191
138
66
196
144
71
183
124
57
136
84
36
156
90
39
163
92
40
130
69
29
39
14
7
143
85
40
175
110
53
150
86
36
180
113
56
166
99
50
83
43
21
32
12
8
80
40
15
100
46
19
99
44
17
59
24
13
127
62
26
172
100
50
171
102
49
138
81
35
96
47
17
178
112
52
189
121
61
162
94
43
131
73
30
67
35
14
77
45
19
173
119
58
190
137
70
190
139
65
196
144
70
182
124
57
136
84
37
156
90
39
163
93
39
131
68
28
39
14
6
144
84
37
139
79
35
163
99
46
182
114
58
175
107
50
150
84
41
64
31
15
14
6
6
32
12
6
83
36
12
132
71
35
119
57
24
170
92
39
188
118
61
172
104
48
184
118
56
187
119
56
174
103
47
160
94
42
175
115
56
146
86
37
128
78
36
175
126
64
196
149
80
191
139
70
194
140
73
175
113
50
93
48
19
66
30
12
125
63
24
151
78
34
104
53
23
75
42
17
139
79
33
164
99
45
182
114
59
176
107
49
150
85
42
66
31
15
16
6
6
30
13
5
83
36
13
133
71
35
118
57
25
169
91
39
187
119
62
171
104
47
184
118
56
188
119
56
174
103
47
160
95
44
176
115
55
146
86
37
129
77
36
175
125
65
197
149
80
192
138
70
194
140
73
176
112
48
91
48
21
66
29
12
125
63
23
152
78
33
104
53
23
76
42
17
47
24
11
126
73
33
180
114
55
185
120
56
166
103
48
136
77
38
53
25
12
12
8
5
24
8
7
107
53
22
149
77
33
176
95
42
176
99
42
179
108
49
181
108
47
184
110
48
189
121
56
119
61
24
131
76
36
180
113
51
185
130
65
188
137
70
195
149
80
187
135
66
173
115
54
156
94
38
155
85
38
100
49
22
54
23
10
142
81
36
157
85
39
113
62
28
47
24
11
126
73
32
178
114
57
184
120
55
166
103
48
135
77
38
53
24
11
11
8
5
25
7
6
108
53
22
148
77
34
175
94
43
175
98
43
179
108
49
181
107
48
183
109
48
189
120
57
118
61
24
130
76
36
179
112
51
185
130
65
186
137
68
194
148
81
187
134
66
173
115
54
155
94
36
156
85
40
101
49
22
55
23
11
142
81
36
156
85
38
113
62
30
108
58
24
55
27
12
151
89
39
185
119
57
177
110
54
158
94
46
96
54
27
12
7
5
16
8
6
64
28
11
130
64
28
148
77
37
110
55
24
147
81
32
173
104
47
174
99
40
182
107
46
174
97
40
115
61
25
149
85
37
193
137
73
186
132
63
187
133
64
183
124
61
153
93
44
97
47
17
133
70
29
158
91
40
126
66
30
139
83
37
166
102
47
162
90
39
110
58
24
55
28
12
151
88
39
185
119
57
177
110
54
159
94
45
97
54
27
12
7
4
16
7
5
63
29
11
131
64
28
147
77
37
111
54
25
147
80
31
174
103
46
175
99
40
181
108
47
175
97
40
116
61
26
149
85
38
192
137
74
186
132
61
188
134
65
183
124
63
154
93
45
97
46
18
133
69
30
157
91
39
126
67
30
139
83
36
168
101
48
161
91
39
129
63
27
48
19
8
110
60
29
168
105
48
184
119
61
172
105
53
129
78
42
31
13
6
14
7
7
22
9
6
101
49
22
140
73
34
75
33
13
53
26
12
124
70
32
153
86
38
147
78
32
146
74
30
162
91
39
165
96
42
186
125
60
195
140
70
189
131
63
155
96
41
84
45
18
22
9
6
73
36
14
148
87
39
161
95
46
141
77
39
157
105
46
151
84
36
129
64
26
49
19
9
110
60
27
167
104
49
184
119
61
173
104
54
129
78
42
31
13
6
13
8
6
24
9
6
101
49
23
139
74
35
75
34
13
54
26
13
125
70
33
153
86
37
147
78
32
146
75
31
161
91
40
165
96
41
186
124
59
194
140
69
190
131
62
155
96
41
83
45
17
23
8
6
73
36
14
149
87
38
161
95
45
141
77
39
158
104
46
151
85
37
122
62
24
89
44
19
49
22
10
127
75
35
172
107
54
172
107
54
154
96
51
86
40
17
21
10
8
11
7
7
55
24
10
122
62
29
107
48
18
34
14
7
23
11
7
92
44
19
120
59
22
67
29
12
123
69
30
163
99
44
172
104
43
189
133
65
191
140
70
172
112
48
118
71
30
25
10
6
19
9
6
119
67
29
170
114
50
148
95
54
90
54
34
95
50
21
122
62
25
90
45
18
49
23
10
127
75
34
173
107
55
171
107
54
154
97
51
86
41
18
20
10
6
11
7
8
55
24
12
122
62
29
107
48
19
34
13
7
23
11
7
92
45
21
119
59
21
67
29
12
122
68
29
163
99
44
171
105
44
189
133
64
191
140
70
171
112
48
119
70
30
25
10
5
20
7
7
118
67
29
169
114
52
148
95
53
89
54
35
95
50
22
96
50
21
143
79
35
94
49
21
29
12
7
134
80
41
163
100
52
161
100
54
131
72
35
69
35
15
15
9
8
16
7
4
85
38
16
110
51
22
85
37
17
31
13
7
18
8
7
73
31
13
66
29
11
31
12
7
127
71
29
175
115
55
186
130
65
190
135
65
186
126
62
166
114
54
100
58
25
17
6
6
89
48
20
152
98
45
174
118
59
120
74
40
33
15
10
96
49
23
143
79
35
95
50
21
28
13
7
134
81
40
164
100
51
161
100
54
131
73
35
70
34
15
15
9
9
16
7
5
87
38
16
110
51
22
85
37
15
32
13
8
18
8
7
73
31
14
65
29
10
30
13
8
127
71
32
173
116
55
186
130
65
189
135
66
186
126
61
166
114
55
100
57
26
16
6
6
88
48
20
151
99
45
173
118
60
119
74
40
33
15
11
76
40
18
166
103
50
158
99
48
102
54
23
54
25
11
104
55
23
111
59
27
114
58
26
91
41
18
34
13
8
10
5
4
47
18
10
85
39
19
107
51
26
86
38
17
21
8
8
32
12
7
90
40
19
27
10
6
76
39
18
160
103
49
182
129
62
188
130
62
184
128
60
173
120
55
151
93
43
66
35
15
45
20
9
99
54
24
136
87
39
131
86
39
56
31
18
76
40
19
165
104
50
159
98
47
103
54
23
54
25
12
104
55
24
111
59
27
115
58
26
90
42
18
33
13
8
10
5
5
47
19
9
86
38
18
107
52
26
86
39
18
21
8
8
33
12
7
90
40
19
27
9
7
76
39
16
160
103
47
182
128
63
188
130
62
184
128
59
173
120
55
151
92
41
66
36
16
45
20
9
99
55
22
135
86
39
132
84
39
55
31
17
44
21
11
150
94
45
181
118
58
168
104
50
125
67
28
55
23
9
23
9
7
39
15
7
86
38
17
75
32
13
14
6
4
13
7
3
21
7
6
49
19
11
104
54
26
81
38
19
18
7
6
90
38
16
79
36
16
41
19
9
140
82
34
177
122
56
192
137
68
189
131
61
184
124
58
176
114
55
111
70
32
38
22
9
28
14
7
58
31
13
114
66
29
97
54
26
45
21
13
150
95
45
181
119
57
169
104
50
124
67
29
55
23
8
23
9
7
38
15
7
87
37
17
75
31
13
15
6
5
12
7
4
20
8
6
48
20
10
104
54
24
80
38
19
18
7
6
89
39
17
78
37
15
42
19
9
140
82
34
177
122
57
192
137
66
189
131
60
183
124
58
177
114
56
112
70
32
38
22
8
29
13
9
57
31
14
113
66
30
98
53
26
99
47
20
139
83
36
176
115
51
189
123
68
177
106
54
141
74
34
84
38
16
85
37
14
56
21
10
93
39
16
69
28
12
21
8
5
13
6
5
16
7
6
85
40
20
111
57
27
87
38
16
122
59
29
126
65
30
41
16
9
122
68
32
173
114
54
189
134
67
189
125
60
186
126
59
187
126
66
159
107
51
73
47
22
26
14
8
25
13
8
84
40
16
118
63
32
99
48
21
138
83
37
176
115
53
189
124
66
177
106
54
141
74
35
84
38
17
85
37
15
54
21
10
92
40
16
68
28
12
22
8
5
14
6
5
16
7
6
85
39
21
111
56
27
88
37
17
120
60
30
126
64
30
40
16
9
122
68
32
171
114
53
189
134
67
189
125
60
187
126
60
188
125
66
158
108
52
73
47
21
26
14
8
26
13
9
84
39
17
117
63
32
113
58
28
150
90
44
130
81
37
182
112
57
177
103
49
161
90
40
143
75
34
122
53
18
125
54
23
137
67
28
132
66
27
86
37
13
23
9
6
11
4
4
32
13
8
64
28
13
99
45
20
122
62
31
133
68
34
94
44
19
57
28
13
145
87
41
180
120
63
188
129
66
154
93
39
164
105
47
177
114
53
147
97
50
65
41
19
24
12
6
34
16
8
65
29
11
113
58
27
149
90
44
130
80
37
182
112
58
177
103
49
160
90
40
142
76
33
123
52
19
126
54
21
137
66
28
133
65
29
85
36
15
23
9
5
11
4
5
31
13
8
65
28
14
99
46
20
122
62
30
133
68
33
94
44
20
59
29
12
146
87
42
180
120
64
188
129
65
153
93
40
164
105
48
176
114
53
146
98
51
64
41
19
24
12
8
34
16
8
64
29
11
45
20
9
141
77
38
107
57
25
155
90
41
169
97
49
116
57
25
91
45
21
113
55
26
130
63
26
151
78
36
162
89
42
138
68
29
112
54
22
75
34
14
42
15
8
18
8
6
22
9
7
61
26
12
97
47
21
108
51
22
51
20
10
70
33
12
147
88
42
173
108
54
148
84
37
78
38
12
157
92
38
163
104
45
124
74
33
97
53
22
64
36
16
30
13
8
45
21
9
140
77
38
106
57
24
155
91
40
170
97
50
116
57
25
90
46
21
113
55
25
131
63
26
152
78
36
163
88
42
137
68
30
111
54
22
75
33
14
43
16
8
18
7
7
22
9
6
61
26
13
96
47
22
108
52
22
51
20
11
69
33
12
147
87
42
172
108
53
148
85
36
77
38
12
156
92
40
164
104
46
123
74
32
97
53
21
64
36
17
29
13
8
65
31
18
114
55
32
106
52
27
93
49
22
154
85
40
133
68
29
58
25
13
22
7
8
48
17
8
121
62
28
160
87
42
164
90
44
154
80
35
149
81
37
120
57
24
70
30
13
19
9
7
16
8
9
29
11
5
70
28
12
67
28
12
21
9
6
75
36
15
129
67
28
146
81
36
72
29
12
115
61
28
149
83
37
66
32
13
136
74
32
144
89
40
107
63
29
67
31
19
114
55
34
107
51
26
92
49
23
154
85
40
133
67
26
58
25
14
22
7
8
48
18
9
121
62
29
159
88
43
165
90
44
153
80
35
148
81
37
119
57
26
70
30
12
18
10
6
16
8
7
28
12
6
70
28
13
68
27
12
20
8
6
73
37
14
129
67
29
146
81
36
72
29
12
114
60
29
149
83
37
66
31
13
135
73
31
144
89
40
106
62
31
93
50
19
88
45
24
109
54
31
40
17
8
108
55
24
135
72
34
104
49
21
38
15
8
14
7
5
37
15
9
118
55
22
145
74
32
130
65
28
154
78
32
155
82
38
131
65
29
78
35
17
15
8
5
14
7
5
27
11
7
58
24
11
46
17
8
13
6
5
83
40
16
135
70
33
123
61
26
94
43
17
146
76
33
78
36
15
88
45
22
154
90
44
145
86
44
93
51
20
87
46
23
109
55
31
40
18
9
106
55
23
134
72
34
103
50
22
37
16
7
14
7
6
38
16
9
118
55
22
146
74
33
131
65
29
155
78
32
154
82
37
131
65
29
79
34
18
14
7
5
15
7
5
26
11
6
57
23
10
46
16
8
13
6
6
82
40
15
134
70
33
123
60
27
93
43
17
146
76
33
79
35
13
87
45
22
153
91
45
144
87
42
139
80
34
118
71
33
135
78
39
60
28
13
24
8
7
80
37
15
104
48
20
84
37
15
36
15
9
16
10
7
63
26
9
114
51
16
77
32
13
144
77
35
157
80
31
165
90
42
140
76
36
66
31
14
14
7
3
16
7
5
18
7
7
39
14
8
27
11
7
19
7
6
101
51
24
130
64
25
125
57
23
152
77
33
117
58
24
32
11
7
117
59
30
162
91
43
140
80
34
118
72
34
136
78
40
60
29
14
24
8
6
81
37
15
103
48
19
85
37
16
35
15
9
16
10
7
62
27
8
113
51
16
76
32
13
143
76
34
158
79
32
165
90
44
140
77
35
65
31
14
13
6
4
16
8
6
17
7
7
38
15
8
27
11
7
18
7
6
101
51
22
130
64
26
125
57
24
151
77
31
116
59
24
32
11
8
118
59
30
162
91
44
161
94
46
152
98
48
166
114
58
114
60
28
41
18
7
23
10
7
69
30
12
122
65
31
107
51
24
67
27
12
30
10
7
92
39
13
82
33
12
87
39
16
147
72
28
174
98
46
161
88
42
122
63
28
45
21
11
11
8
3
15
6
4
14
6
3
34
12
7
11
5
4
44
19
10
134
69
31
155
79
34
166
92
41
135
69
32
46
19
10
85
38
18
154
82
35
162
94
46
152
98
48
166
113
58
113
59
28
41
19
9
23
10
9
68
31
11
123
64
31
107
51
25
67
26
12
30
10
7
92
39
13
82
32
11
85
40
17
147
73
30
174
97
47
161
89
41
122
62
29
45
21
12
10
7
4
14
6
4
13
7
2
34
12
8
11
5
5
44
19
10
134
69
33
155
78
34
165
91
41
136
68
31
46
20
10
85
38
19
154
81
36
157
88
40
167
105
48
164
114
54
159
101
48
108
58
24
52
22
11
19
7
7
102
50
20
154
82
37
140
72
29
100
44
17
58
22
10
72
29
10
31
11
6
115
52
18
145
71
29
157
81
34
154
79
34
113
55
24
55
23
10
16
9
6
9
6
5
33
11
5
19
7
4
20
8
8
105
53
22
150
80
35
171
100
51
143
76
36
74
33
15
48
21
8
122
59
25
158
88
38
167
105
49
163
114
53
159
101
48
108
58
24
52
22
11
19
6
10
102
51
19
154
82
36
138
72
28
99
45
16
58
22
11
71
28
11
32
11
6
114
52
20
145
71
29
157
81
33
155
80
34
113
55
23
55
23
12
16
8
6
9
6
6
32
11
5
20
7
5
21
8
8
105
52
23
150
80
36
171
100
52
143
75
36
74
33
16
47
22
9
122
60
25
77
37
16
148
88
45
163
105
49
174
119
55
171
114
55
132
73
32
58
28
16
60
27
11
141
75
30
148
78
33
124
60
24
94
39
14
45
14
7
22
8
7
81
32
13
121
53
20
72
30
12
132
67
29
143
71
32
125
58
26
94
40
21
45
17
9
17
7
4
10
5
3
9
7
5
63
30
13
96
45
19
131
70
36
115
58
26
78
34
18
25
10
5
96
43
19
79
36
17
148
87
44
163
104
49
173
120
56
172
113
55
132
72
34
58
28
16
61
26
11
140
75
31
147
78
32
124
59
25
94
40
14
44
14
7
22
8
6
80
32
13
120
53
21
72
30
12
132
67
29
142
71
33
125
59
26
95
40
19
46
18
9
18
7
4
10
4
3
9
8
4
64
30
15
97
45
19
131
69
36
116
58
25
78
33
18
25
9
6
97
43
18
95
42
17
75
46
25
159
104
51
183
134
59
186
129
65
177
114
58
89
49
23
32
13
9
103
56
24
119
63
26
52
21
10
55
22
10
71
30
12
44
15
6
40
15
10
117
51
21
96
41
17
46
18
8
130
65
30
152
75
34
157
80
41
125
61
28
98
44
20
60
24
11
18
7
6
12
6
6
27
12
6
44
19
9
54
23
12
61
24
13
20
6
5
85
37
20
96
42
17
77
46
27
158
105
51
183
133
59
184
129
65
178
114
56
89
49
23
32
14
10
104
56
25
119
63
28
52
22
11
55
22
11
71
30
13
45
15
6
41
14
10
117
50
20
95
42
18
45
18
10
129
65
31
152
75
33
158
80
42
125
61
29
99
44
21
59
24
10
18
7
5
13
6
5
26
11
6
44
19
9
54
22
11
61
24
13
20
7
5
84
36
20
119
59
25
85
45
18
115
82
35
181
138
71
190
142
77
175
120
59
110
66
28
16
8
6
47
24
12
100
51
19
50
22
10
16
9
6
32
11
8
87
38
19
84
36
15
76
31
14
129
59
26
101
46
19
55
22
10
126
62
25
170
100
48
164
93
43
126
62
28
85
39
19
62
26
13
21
9
7
9
4
4
36
14
8
52
21
13
30
12
6
15
8
7
53
22
12
119
59
25
87
45
20
115
82
36
181
138
70
191
141
79
176
120
59
110
66
29
15
8
6
47
24
12
99
51
19
50
23
10
16
8
7
32
12
9
86
39
18
84
37
15
75
31
14
128
59
27
102
46
20
56
22
11
126
62
27
169
101
46
163
94
44
126
62
29
85
39
18
61
26
13
23
9
7
10
4
4
37
14
7
52
20
12
31
11
5
14
9
6
51
22
13
111
55
23
66
33
15
112
67
31
174
121
64
184
129
69
172
113
55
130
81
41
33
14
8
12
8
5
42
22
11
77
36
14
58
26
13
39
16
7
52
19
10
114
56
22
139
70
31
133
63
28
128
61
23
86
43
18
61
28
13
161
103
48
182
125
60
128
77
37
36
13
7
45
18
8
42
15
10
40
17
7
119
65
29
143
82
40
91
45
26
66
38
17
90
44
20
109
55
24
67
33
14
112
67
31
173
122
65
184
129
69
171
113
55
129
81
39
33
14
8
12
6
7
43
22
10
77
36
17
60
25
13
39
16
7
53
19
10
113
56
23
139
69
32
131
64
27
129
61
25
88
42
18
61
28
14
162
103
48
183
125
60
127
78
36
37
13
8
44
18
10
42
15
8
39
17
7
120
65
31
145
82
40
92
46
26
65
38
16
88
44
21
83
41
19
55
25
12
41
17
9
121
71
32
165
101
52
171
107
55
159
98
51
92
48
21
24
8
7
15
7
5
59
25
13
107
52
25
74
30
12
29
11
7
33
15
8
90
44
21
124
63
26
78
38
16
93
46
20
34
15
8
108
64
27
168
117
54
163
106
53
79
40
17
17
8
7
27
11
7
33
16
9
119
68
28
167
109
47
149
95
51
92
55
30
80
41
18
85
41
17
54
25
13
40
18
7
122
70
32
164
101
50
171
108
56
157
98
49
92
48
22
24
8
6
13
7
6
59
25
13
107
52
26
74
29
13
30
10
7
33
15
9
89
44
19
126
62
26
77
38
15
93
46
20
34
15
7
108
63
26
170
117
56
163
107
54
78
41
18
18
8
5
26
10
7
32
17
12
119
68
28
167
109
48
149
95
49
91
55
28
80
40
19
82
49
23
25
11
7
16
8
4
26
11
5
114
65
29
162
100
48
178
115
60
148
90
40
75
38
14
42
22
13
36
17
8
102
55
26
83
37
15
45
17
7
66
32
14
33
16
9
87
44
17
117
68
31
127
67
32
64
28
10
38
19
12
88
52
26
143
84
38
128
69
32
63
28
17
15
8
6
30
13
6
114
62
29
150
94
41
168
105
50
149
92
45
117
72
33
82
49
24
23
12
7
18
8
5
25
12
4
114
64
30
162
100
49
178
114
61
149
90
40
77
38
14
42
22
12
36
18
8
101
54
26
84
36
14
45
17
9
66
34
16
34
15
9
88
45
17
116
69
29
126
68
31
64
28
10
38
19
10
87
52
24
143
84
39
129
70
33
63
28
15
14
8
6
31
13
7
115
62
27
151
95
41
168
104
51
150
93
45
117
72
33
135
84
40
26
13
6
11
7
4
16
7
4
46
20
9
152
91
44
181
117
59
170
102
44
88
49
22
92
49
22
63
37
17
90
52
26
130
73
34
97
50
22
139
80
34
81
44
20
42
21
8
142
81
37
157
91
43
121
61
23
63
28
15
20
8
6
115
64
29
159
98
48
115
55
25
37
16
10
14
6
6
91
50
24
141
84
37
162
93
41
172
111
53
172
110
51
135
84
41
26
13
5
12
6
3
16
7
4
47
20
11
152
91
44
181
116
59
169
101
43
87
49
21
91
49
23
63
37
17
91
53
25
130
73
34
97
51
21
138
80
33
80
44
20
44
20
10
141
82
37
157
91
42
122
62
24
64
28
14
20
9
6
114
65
29
159
97
48
114
54
23
38
15
9
14
7
7
91
50
25
143
85
36
160
93
42
171
111
53
173
110
53
164
96
49
80
39
17
19
10
6
30
15
9
89
49
21
160
105
50
183
131
59
179
113
49
124
72
32
92
48
22
102
63
28
67
41
18
150
90
42
153
85
39
166
104
50
144
90
40
73
37
21
84
43
20
97
48
21
123
63
24
118
60
23
84
41
20
67
30
13
151
87
41
143
73
34
63
29
13
10
7
6
29
13
8
97
56
23
153
87
39
172
111
53
180
115
61
163
97
48
80
38
15
21
9
6
29
14
10
89
48
20
158
106
52
183
130
61
178
114
48
124
72
32
92
47
24
101
61
28
67
42
19
150
90
42
154
85
41
167
103
50
145
90
40
72
37
20
85
42
20
94
49
22
124
62
26
119
60
22
87
40
19
66
29
14
152
87
41
143
74
33
63
28
13
10
8
6
28
14
7
98
56
23
151
87
39
172
111
54
180
115
60
160
91
41
133
72
31
77
36
17
29
14
9
103
55
20
177
119
56
188
129
62
182
116
56
160
95
44
78
39
17
130
75
35
104
63
29
160
95
42
128
70
29
81
38
17
142
82
36
148
79
36
128
67
32
37
16
7
60
28
13
108
52
24
161
94
45
140
75
31
173
107
52
167
98
46
110
64
30
30
14
11
15
7
5
30
12
9
110
59
26
123
67
34
152
91
41
160
92
42
133
72
30
76
37
17
31
13
9
104
56
21
176
118
57
188
129
62
183
116
56
160
96
43
79
39
17
130
74
36
105
62
29
160
96
43
128
71
29
80
40
15
142
82
37
148
80
35
128
66
31
37
17
8
61
27
14
109
52
23
160
94
45
138
76
33
172
107
52
168
100
46
110
64
30
31
14
8
14
8
5
30
12
8
110
60
27
122
68
32
152
91
42
157
95
47
166
104
49
149
87
36
109
56
29
151
85
38
185
123
59
189
124
63
184
115
56
170
101
46
86
46
21
125
71
31
159
95
42
170
103
46
145
79
36
60
27
11
65
28
11
150
82
41
137
74
36
96
44
22
23
10
7
98
48
20
167
100
44
179
110
50
189
124
60
187
124
65
156
100
49
114
66
30
49
24
11
14
6
5
36
20
10
71
33
15
84
44
20
158
94
47
166
104
49
149
87
37
108
56
28
149
85
38
186
123
60
190
123
64
184
115
56
168
101
45
85
45
22
124
71
31
159
94
42
169
103
45
145
80
35
60
26
12
63
28
11
150
82
40
137
75
36
95
44
21
26
9
7
97
49
20
166
100
43
178
111
50
190
124
61
186
124
65
155
101
48
112
68
32
49
24
11
14
7
4
38
19
9
70
33
16
86
43
18
122
68
32
179
118
57
175
106
50
134
74
35
135
81
36
165
102
46
176
111
50
173
105
47
169
102
50
115
63
31
70
36
17
147
82
36
171
104
50
161
87
40
126
60
27
40
15
8
105
53
25
128
65
27
92
39
17
35
15
9
126
66
28
170
102
45
179
111
50
184
118
55
192
135
70
177
122
60
164
110
55
128
78
39
53
26
12
19
10
9
24
10
6
38
15
7
121
68
31
179
118
56
174
105
47
134
74
35
136
80
37
166
100
47
176
111
50
173
105
48
170
102
51
116
63
30
70
36
17
146
81
35
171
104
50
161
87
39
126
61
26
40
14
8
105
53
23
128
64
28
91
39
17
37
13
8
124
67
27
170
103
46
179
110
51
184
117
55
192
136
70
176
123
61
164
110
56
126
79
40
52
26
9
18
10
9
25
9
9
38
15
7
71
34
14
170
108
51
168
105
53
160
93
44
126
68
30
74
33
17
115
61
27
149
83
36
137
72
29
117
57
22
21
8
6
71
34
13
129
67
26
163
91
42
157
84
34
118
60
29
50
20
10
92
41
16
50
18
9
13
6
5
109
57
23
165
94
42
147
84
38
155
96
43
183
130
65
195
151
83
187
136
73
167
113
58
120
69
29
38
19
10
19
8
7
53
23
11
70
34
14
170
108
48
168
105
53
159
93
45
126
69
28
74
33
17
114
60
28
147
83
35
136
72
30
117
58
22
22
8
4
72
33
14
130
67
27
163
90
41
158
83
35
118
60
29
51
19
10
95
40
15
48
19
8
13
6
6
109
56
21
164
95
42
146
85
37
154
96
44
182
132
66
197
150
84
186
136
74
166
113
58
120
68
31
38
18
8
18
9
6
54
22
10
94
48
22
143
80
40
154
92
47
175
111
49
177
108
50
151
84
36
96
48
22
47
19
10
76
32
16
103
50
21
55
22
10
11
8
4
68
30
13
139
71
30
169
96
44
159
88
38
103
50
21
48
21
12
39
18
10
27
10
8
113
59
24
159
96
45
137
86
38
55
27
14
145
92
43
185
136
71
189
137
71
180
118
55
153
95
46
92
47
21
21
10
6
60
28
13
94
48
22
142
80
39
155
92
48
175
112
49
177
109
50
151
85
36
97
48
22
47
18
10
76
32
16
105
50
21
53
23
10
11
8
6
67
31
11
139
71
30
169
97
44
159
88
37
102
50
20
47
21
11
39
17
9
28
10
8
113
59
24
161
96
47
137
86
39
55
27
14
145
92
41
185
136
73
190
136
71
180
118
55
153
95
44
92
46
21
20
9
7
58
29
13
74
42
16
139
72
33
146
75
41
172
110
50
172
108
51
158
87
38
152
83
39
99
45
19
23
9
8
84
35
15
107
47
20
89
43
19
37
15
8
111
56
27
166
94
41
162
91
41
144
77
32
65
30
11
26
11
7
28
11
7
118
64
26
163
104
46
174
114
57
150
96
43
122
73
32
191
141
75
191
139
70
187
127
57
166
104
44
124
65
26
83
39
17
64
29
14
75
40
17
140
72
35
147
75
41
172
111
50
175
107
50
158
88
39
151
83
38
100
45
17
24
8
7
83
35
14
107
48
21
88
44
17
37
15
9
110
55
27
165
96
42
161
92
40
144
78
33
64
29
10
26
11
6
27
12
8
119
65
27
163
103
48
174
114
56
151
95
44
120
74
32
191
141
74
193
138
69
188
127
58
166
103
44
125
66
27
83
38
17
64
30
14
143
84
39
136
75
31
151
84
42
151
85
38
102
57
26
129
67
30
145
82
37
131
65
29
77
32
15
61
27
12
136
68
28
148
79
36
112
58
26
42
19
10
124
70
31
179
112
52
170
102
46
125
64
26
50
21
9
13
5
7
111
66
31
173
121
58
183
127
64
184
129
65
181
127
60
187
130
61
190
135
69
184
122
56
166
100
41
127
64
22
104
50
23
154
85
44
142
84
38
136
75
31
150
84
42
152
85
39
102
57
28
130
66
29
147
82
36
131
65
28
77
32
17
62
27
12
137
68
29
149
79
38
114
57
25
42
19
10
124
70
31
180
110
53
171
102
47
125
64
26
48
20
7
10
5
6
112
66
30
175
120
59
184
128
62
182
130
65
180
127
57
187
130
63
189
136
67
183
121
56
166
99
43
126
65
24
104
50
22
153
85
42
176
111
52
149
86
36
180
113
57
166
99
47
83
43
22
32
13
8
80
39
17
99
47
18
99
44
18
59
24
13
128
61
25
171
99
49
170
102
48
138
81
37
95
48
14
178
113
51
187
120
61
163
96
44
131
73
29
67
34
16
79
44
20
174
120
56
189
137
70
190
139
65
196
143
70
182
124
57
137
84
38
156
90
40
163
92
40
130
68
29
40
14
7
143
85
38
178
110
52
150
86
35
181
113
58
165
100
48
83
43
21
32
12
8
79
39
18
99
46
21
99
44
16
59
24
13
127
62
25
173
99
48
171
102
47
139
81
36
96
48
16
179
112
52
187
121
61
162
96
42
132
72
30
65
34
14
78
44
20
175
119
56
191
137
71
191
138
66
197
144
70
182
124
58
135
84
36
156
90
39
165
92
41
130
70
28
39
15
7
144
85
39
139
79
35
163
100
46
181
114
59
174
108
49
150
85
42
65
31
16
14
7
6
31
13
6
83
36
11
133
70
35
119
58
24
170
91
40
187
119
63
172
104
48
183
118
56
188
119
56
175
102
47
160
94
42
176
115
56
146
85
37
128
78
37
174
126
65
196
149
79
192
139
70
194
140
73
175
112
49
93
46
18
65
29
11
125
63
25
152
79
34
104
53
24
77
42
18
140
78
36
163
100
45
180
114
58
176
107
51
149
85
42
66
31
17
15
5
6
32
12
6
82
36
13
133
71
36
120
57
24
170
92
40
187
119
61
172
104
48
184
118
55
187
120
57
174
102
46
160
94
41
175
115
55
145
86
36
129
77
39
175
126
65
196
149
80
191
139
71
193
140
73
174
112
50
93
47
18
65
30
11
124
64
25
152
79
34
103
53
24
75
41
16
46
24
10
127
73
33
180
113
56
185
120
57
167
103
48
136
77
39
51
25
12
12
8
5
23
9
8
107
52
22
148
76
34
175
95
42
176
99
43
179
107
48
180
108
49
185
109
49
189
121
56
118
60
24
131
76
37
179
113
51
184
130
64
188
136
69
194
148
79
188
135
66
173
115
54
156
94
38
154
86
40
101
49
21
55
24
11
143
82
36
157
85
38
112
63
28
48
23
10
126
73
34
179
113
56
184
119
56
166
103
47
135
78
38
52
25
11
13
8
6
23
8
8
107
53
22
148
77
35
176
95
42
176
99
42
180
108
50
182
107
48
184
110
48
190
120
56
117
61
24
130
76
37
179
112
52
185
130
66
188
136
69
195
148
80
187
134
66
173
115
53
156
94
38
154
86
40
100
49
22
55
23
10
142
81
37
158
85
40
112
62
28
109
58
23
55
27
12
150
89
39
185
119
57
177
111
53
159
94
44
95
54
28
12
7
6
15
8
6
64
28
11
131
64
28
148
78
37
111
54
25
146
81
33
174
104
45
174
100
40
182
107
47
174
96
40
116
61
25
149
86
36
192
137
72
186
132
62
187
134
63
183
124
63
152
93
43
97
47
18
133
69
29
157
90
40
127
66
32
139
84
37
166
102
47
162
90
40
109
58
26
55
27
13
151
88
39
184
120
56
177
110
54
159
93
47
96
53
28
12
8
6
16
7
6
64
29
10
130
64
28
149
76
37
110
55
24
146
81
31
173
104
47
174
98
41
181
107
47
174
96
39
113
61
26
149
85
37
192
137
72
185
132
61
187
132
65
183
123
60
153
92
44
97
47
17
133
70
29
157
91
40
125
66
31
138
83
38
166
102
48
161
91
39
129
64
26
49
19
9
111
61
28
167
105
49
183
119
61
171
105
53
128
78
42
32
13
7
14
7
8
23
9
5
103
50
23
140
74
35
74
33
13
53
27
13
123
71
33
153
85
38
148
77
32
146
74
31
162
91
40
165
96
42
185
124
60
193
140
69
189
131
62
156
96
40
84
44
19
20
9
7
73
36
15
147
87
39
161
95
47
141
76
39
156
105
46
151
85
36
130
64
27
48
19
9
110
60
29
168
105
48
184
119
61
173
104
52
129
77
41
31
13
6
15
7
6
23
8
6
100
50
23
140
73
33
75
33
14
52
26
12
124
70
33
154
86
38
147
78
32
146
74
33
163
91
38
165
96
41
186
125
60
193
140
69
188
131
62
156
96
41
84
44
18
22
9
5
72
37
15
147
87
39
161
95
46
140
77
39
157
104
46
151
84
36
122
63
24
89
45
19
48
22
10
127
75
33
173
108
55
172
107
55
154
96
52
86
40
17
21
10
8
10
8
9
55
24
10
122
62
31
108
47
19
35
15
7
25
11
7
92
45
19
120
59
23
66
29
12
124
68
29
162
100
44
172
104
43
190
133
65
191
139
69
172
112
48
118
71
32
25
10
5
20
8
7
120
67
29
169
113
50
148
95
54
90
53
33
95
50
22
123
62
25
89
45
19
48
23
10
129
74
35
172
108
54
170
106
55
155
96
51
86
41
18
20
10
9
12
7
8
54
24
12
123
62
30
106
49
19
35
15
9
25
10
9
91
44
20
119
59
21
67
29
13
123
68
30
163
100
44
171
105
43
188
134
66
191
139
70
171
112
49
119
70
29
24
10
7
19
9
4
121
66
29
171
114
51
147
96
53
89
54
34
94
49
20
97
50
22
142
80
34
93
50
22
29
13
9
133
80
39
163
100
53
160
100
54
132
73
35
68
34
16
14
10
6
16
7
4
85
38
16
111
51
22
86
37
19
32
13
7
19
8
7
72
31
14
66
29
11
29
12
8
126
71
28
176
115
55
186
130
62
189
135
63
185
127
63
165
113
55
101
57
24
17
7
6
88
47
21
152
98
44
173
118
59
120
74
40
33
14
11
96
50
21
143
78
34
94
49
21
29
11
7
133
80
41
162
100
52
159
100
53
130
72
34
68
34
15
14
10
8
15
7
4
86
38
16
111
51
20
85
38
17
31
14
7
17
10
7
73
30
15
66
29
12
30
13
7
126
72
29
175
116
55
187
130
65
190
135
65
186
126
62
165
115
53
100
58
25
17
7
7
89
47
20
150
99
45
173
119
59
119
74
41
33
15
11
76
41
17
166
103
50
157
100
48
102
54
23
54
25
12
104
55
25
111
60
26
114
58
27
91
42
18
33
14
8
9
6
5
48
19
10
85
39
20
106
51
26
86
38
17
20
9
7
32
12
7
90
40
18
27
11
6
78
38
18
160
103
48
183
127
62
188
130
61
186
128
60
173
121
55
151
93
43
66
35
14
45
19
9
99
54
24
135
87
39
131
85
39
54
31
17
77
40
20
166
103
48
159
99
47
102
54
23
53
26
11
104
55
25
111
59
27
114
57
26
91
41
18
35
13
8
10
6
4
46
19
10
86
38
19
106
52
27
84
38
19
20
8
8
31
11
6
88
40
20
26
11
7
77
39
19
160
104
50
183
129
64
188
130
62
185
128
60
174
120
55
151
92
43
65
35
16
46
20
10
99
54
23
136
87
39
131
85
39
55
31
18
44
22
11
149
95
44
181
118
59
168
104
49
126
67
29
56
22
9
22
9
8
39
15
7
87
38
17
75
33
12
15
6
4
12
7
5
22
8
5
49
18
10
104
54
25
81
38
19
18
7
6
89
39
16
80
36
17
41
19
10
141
81
33
177
121
58
192
137
67
189
131
59
184
124
59
176
115
56
112
69
32
38
22
8
28
13
7
59
31
13
113
66
29
96
54
28
44
22
12
150
94
45
181
118
57
169
104
50
124
67
29
56
23
10
23
9
8
39
15
7
86
39
17
76
31
13
14
6
4
12
7
4
20
7
5
49
19
11
103
54
25
80
38
20
17
7
6
90
39
18
78
37
15
42
19
10
140
82
33
176
122
57
194
137
68
189
131
60
185
124
57
177
114
57
111
71
32
38
22
9
28
14
7
58
31
14
113
66
30
98
54
25
97
48
18
139
83
37
175
115
52
189
124
69
176
105
54
141
75
34
83
38
16
86
36
15
55
21
10
93
39
18
69
28
13
21
9
5
13
6
4
16
8
5
85
39
20
112
57
27
86
37
17
121
59
28
126
65
30
40
16
9
121
68
32
173
114
54
188
134
67
188
126
60
187
126
59
187
126
66
158
107
52
73
46
22
26
14
8
25
11
9
84
40
17
116
63
32
99
47
20
137
84
36
176
115
52
190
124
67
176
106
53
141
73
35
83
38
15
86
36
15
56
20
9
92
39
17
70
28
12
21
8
6
12
7
4
17
7
5
84
40
19
112
56
26
87
38
15
121
59
29
127
64
29
40
16
8
122
68
33
173
115
54
189
134
68
188
125
60
187
125
59
188
125
65
159
108
52
72
48
22
25
14
8
25
13
8
83
40
16
117
63
31
112
58
29
149
90
43
129
81
36
182
112
58
177
103
49
160
90
40
142
75
33
122
54
19
125
54
23
138
67
29
132
65
30
85
37
15
23
10
6
11
5
5
31
13
7
65
28
13
100
46
21
123
62
32
133
68
32
94
45
20
58
29
13
145
88
41
179
120
63
188
129
66
153
93
39
163
106
48
178
114
53
147
97
49
64
41
17
24
13
7
34
16
8
63
30
12
113
58
27
150
90
43
129
80
37
182
113
57
176
103
50
162
89
41
141
75
34
122
53
18
125
54
22
137
66
29
132
65
27
85
37
14
23
9
6
10
5
4
31
13
8
64
28
14
100
46
20
123
61
31
133
68
32
93
44
21
58
28
12
144
87
41
180
119
63
189
128
66
154
93
40
162
105
48
177
114
52
146
98
50
66
41
20
24
12
6
34
16
8
64
29
11
44
21
9
141
77
38
106
58
26
155
90
42
170
98
50
115
57
25
90
46
21
112
55
27
131
63
26
151
78
35
163
89
43
138
68
30
112
55
22
73
34
16
42
16
7
18
7
6
21
9
7
60
26
12
96
46
21
108
51
23
52
20
11
68
34
14
147
88
44
173
108
55
147
85
38
77
38
12
157
92
38
162
104
44
124
74
32
97
53
22
64
36
17
28
14
7
46
19
8
141
77
37
106
57
25
155
90
42
170
97
49
115
58
24
90
45
23
113
55
27
130
63
26
151
78
36
162
89
42
138
68
29
112
55
22
73
34
15
42
17
8
18
7
5
21
8
7
60
26
13
97
46
21
108
51
23
51
20
10
71
34
13
148
88
43
172
108
53
147
83
37
77
38
12
156
92
40
164
104
45
123
73
34
97
53
22
63
36
16
28
13
8
66
30
19
113
56
33
107
51
26
93
49
22
153
86
40
132
68
30
60
24
14
24
7
8
48
18
7
121
63
29
159
87
42
164
90
44
154
80
36
150
81
37
119
58
24
69
30
14
19
10
7
16
8
10
27
12
6
70
28
14
66
28
12
20
9
6
75
35
15
129
68
27
145
81
35
72
28
14
115
62
29
149
83
36
65
32
14
137
73
32
143
89
40
106
62
31
65
31
18
115
54
32
106
51
27
93
49
22
154
86
40
135
67
28
58
25
14
22
7
8
48
17
8
122
62
29
159
88
43
163
91
44
154
81
36
150
81
36
119
57
25
70
30
12
19
10
8
16
8
10
28
12
6
70
28
12
66
28
11
22
8
6
74
36
15
129
67
28
146
81
36
72
29
12
114
61
28
149
83
38
66
32
14
136
74
32
145
89
39
106
63
31
94
50
18
87
46
23
110
54
31
40
17
7
108
55
23
135
71
34
103
49
21
38
16
7
13
8
5
37
15
10
118
55
21
145
73
33
130
65
28
155
79
32
155
83
38
131
65
27
78
35
16
15
7
6
14
7
3
26
11
7
57
24
11
46
17
8
12
6
5
82
40
18
135
70
32
124
60
27
94
42
17
145
76
34
79
37
15
88
46
23
153
90
43
144
86
44
94
50
21
87
46
23
110
54
31
41
17
7
108
55
23
134
72
32
104
49
22
38
15
8
14
6
5
38
15
6
118
55
24
146
73
32
129
66
28
154
78
31
154
82
38
129
66
29
78
35
17
15
8
4
14
7
6
26
11
7
58
24
12
46
16
9
12
6
5
83
40
17
134
70
32
121
61
28
93
43
17
147
75
33
78
36
12
89
44
22
154
90
43
145
86
43
139
80
35
118
71
34
136
77
39
59
28
13
24
8
5
81
37
16
105
48
19
83
37
15
36
15
9
17
10
7
64
26
9
113
50
17
76
32
14
144
77
35
157
80
32
164
90
42
139
77
36
64
32
16
13
6
3
17
8
6
17
7
7
37
15
8
25
12
6
19
6
5
100
51
26
130
64
26
125
57
23
151
77
30
117
58
24
32
11
7
119
59
29
162
91
43
140
80
36
119
71
34
135
78
39
60
28
13
25
8
8
81
36
16
105
48
19
83
36
18
36
15
8
16
10
7
64
26
9
114
51
17
78
31
15
144
77
33
156
81
32
165
90
43
139
77
37
66
31
14
13
6
5
15
8
6
18
7
4
38
14
6
27
10
8
19
6
6
102
50
23
129
63
26
124
57
24
152
76
34
116
58
24
32
12
7
117
59
29
162
90
45
162
93
45
151
98
48
166
114
57
113
59
28
41
19
7
22
10
7
69
31
13
123
65
31
107
51
26
67
26
13
30
10
7
92
38
14
82
33
11
85
40
17
147
72
29
174
97
46
161
88
40
122
63
26
45
20
12
10
7
4
15
5
4
14
6
3
33
12
7
11
4
4
44
18
10
134
69
32
156
79
34
165
91
42
135
69
31
46
19
11
85
38
18
155
81
36
162
94
45
153
98
47
166
114
57
113
60
28
42
18
7
23
9
7
68
30
12
123
64
30
107
51
26
68
26
12
29
10
7
92
39
14
82
33
12
86
39
17
146
73
28
174
97
46
160
88
41
120
63
27
46
20
11
10
7
5
14
6
4
14
7
4
34
13
7
11
5
3
45
19
10
135
69
32
155
78
34
165
91
41
136
69
32
47
20
10
86
37
17
153
82
35
158
88
39
168
105
48
163
114
55
159
100
50
107
58
23
53
22
10
20
7
8
102
51
19
154
82
36
139
72
29
100
45
18
57
22
11
72
28
11
32
12
7
114
52
18
143
71
30
156
82
33
154
80
34
113
55
24
56
22
10
15
9
7
10
6
4
32
11
6
18
8
4
19
9
7
105
52
21
149
80
36
171
100
50
143
76
35
74
33
14
49
21
8
122
60
24
158
88
41
166
106
48
164
113
55
158
101
48
108
58
24
53
22
11
19
6
7
102
51
21
154
83
37
139
72
29
100
45
17
57
21
10
71
29
11
32
11
4
116
51
20
145
71
29
157
82
35
154
80
35
112
56
24
56
22
10
15
8
6
11
5
6
31
12
5
20
6
4
20
9
8
105
52
23
148
79
36
170
100
52
143
76
37
72
33
15
48
22
8
122
60
24
78
37
15
148
88
46
163
104
50
172
120
55
171
114
55
132
72
32
58
28
17
60
27
12
140
75
30
147
78
32
124
60
25
94
40
16
44
14
8
22
8
6
81
31
13
121
53
20
71
30
11
131
68
31
143
70
32
125
59
26
95
40
19
45
17
8
17
7
3
10
6
2
10
7
5
64
29
14
96
45
19
132
69
39
114
59
26
78
33
18
25
9
4
95
43
19
78
36
16
146
88
45
162
105
49
174
119
55
171
113
55
133
72
32
59
27
15
60
27
12
140
76
31
147
77
33
124
60
23
92
40
15
45
14
8
22
8
6
80
33
15
119
53
19
72
30
11
132
67
31
142
71
31
124
58
27
93
40
20
44
16
9
17
7
3
9
5
4
10
7
5
62
29
14
95
44
19
130
69
37
114
58
26
78
33
17
26
9
4
95
43
19
95
41
17
76
46
26
159
104
50
183
133
60
186
128
65
178
114
58
88
49
23
31
14
9
104
56
24
118
63
27
53
21
9
55
22
9
71
30
14
44
15
6
41
15
10
118
50
20
96
42
19
46
19
8
129
66
31
152
75
33
156
80
42
125
61
29
97
44
20
59
25
12
17
7
6
13
7
6
27
11
6
45
19
9
54
23
11
60
24
12
20
6
4
84
37
20
95
41
18
76
46
24
158
104
51
183
133
59
185
129
66
178
115
57
89
48
23
32
14
8
103
57
25
119
62
27
52
22
10
55
22
9
71
30
13
44
15
7
41
14
11
117
51
22
95
42
18
44
18
10
129
64
32
152
75
34
157
80
43
124
61
29
98
45
21
60
24
14
18
7
6
12
7
5
27
12
6
43
19
9
53
23
11
61
24
14
20
7
5
84
38
18
120
59
26
85
45
20
116
81
35
181
138
72
191
142
77
175
120
59
110
66
28
16
8
7
47
24
13
100
51
20
50
23
10
17
8
8
33
11
7
86
39
19
84
36
15
75
31
13
129
59
27
100
47
20
56
22
10
126
61
27
169
101
47
163
95
42
125
62
26
87
39
19
61
26
13
21
9
6
10
4
2
35
14
8
53
21
13
30
11
6
15
8
7
53
22
12
118
59
25
85
45
18
116
82
35
180
138
71
191
142
78
175
120
59
111
65
29
16
8
7
48
23
12
99
52
20
51
22
11
15
10
7
32
11
9
87
38
19
84
36
15
77
31
14
129
59
26
102
45
20
55
22
9
125
63
27
170
101
48
164
93
44
125
62
26
86
40
19
60
26
13
21
8
7
9
5
4
36
15
7
52
20
11
31
12
6
15
8
8
51
22
12
111
54
21
66
34
14
112
68
31
173
122
64
184
129
68
171
113
54
130
80
41
32
14
7
12
8
4
44
22
11
77
36
15
57
26
14
38
15
7
50
21
10
115
55
22
140
70
32
131
63
27
128
61
24
89
42
18
60
28
14
163
103
48
184
124
60
128
77
36
36
12
8
44
18
9
43
15
8
41
17
8
120
64
29
144
82
39
91
45
27
65
39
16
88
44
20
111
55
23
65
34
15
111
68
30
173
122
64
183
129
69
170
113
53
130
80
40
32
14
8
13
8
4
42
23
11
76
36
16
57
26
14
38
16
8
50
21
12
115
55
21
138
70
32
132
63
26
127
62
23
89
42
18
59
28
13
163
102
47
183
125
59
127
77
38
34
13
7
44
19
11
41
15
8
40
17
7
120
64
30
145
81
39
89
46
27
67
39
16
89
43
23
